<?xml version="1.0" standalone="no"?>
<!DOCTYPE svg PUBLIC "-//W3C//DTD SVG 20010904//EN"
 "http://www.w3.org/TR/2001/REC-SVG-20010904/DTD/svg10.dtd">
<svg version="1.0" xmlns="http://www.w3.org/2000/svg"
 width="213.000000pt" height="213.000000pt" viewBox="0 0 213.000000 213.000000"
 preserveAspectRatio="xMidYMid meet">
<metadata>
Created by potrace 1.14, written by Peter Selinger 2001-2017
</metadata>
<g transform="translate(0.000000,213.000000) scale(0.100000,-0.100000)"
fill="#000000" stroke="none">
<path d="M1440 1874 c-92 -16 -230 -83 -314 -151 -55 -44 -132 -127 -181 -196
-17 -23 -30 -29 -70 -32 -49 -4 -122 -12 -200 -20 -50 -5 -131 -13 -215 -20
-36 -3 -78 -8 -95 -10 -16 -2 -65 -6 -107 -10 -42 -4 -85 -8 -95 -10 -10 -2
-36 -4 -58 -5 -25 -1 -34 -4 -23 -8 13 -5 924 -8 959 -3 3 1 22 25 42 54 38
54 112 135 119 128 1 -2 33 16 69 41 130 89 277 115 411 72 19 -6 36 32 20 48
-13 13 -132 12 -199 -2 -75 -16 -156 -54 -232 -108 -35 -25 -61 -40 -57 -34
12 19 119 89 177 116 68 31 190 54 255 49 79 -6 234 -58 234 -78 0 -6 -32 6
-46 16 -20 16 -93 38 -98 30 -3 -4 -14 -32 -26 -62 l-21 -54 23 28 23 28 45
-32 c25 -17 59 -49 75 -70 16 -22 34 -39 40 -39 6 0 27 16 45 35 l35 36 -33
29 c-18 16 -39 31 -45 33 -7 2 -9 7 -6 11 4 4 32 -16 62 -44 61 -55 123 -147
152 -223 27 -71 28 -51 2 29 -102 310 -367 481 -667 428z"/>
<path d="M1925 1538 c-33 -22 -50 -38 -39 -36 18 5 26 -3 42 -36 11 -22 24
-53 27 -68 7 -27 9 -28 82 -28 72 0 74 1 67 23 -7 22 -44 95 -80 154 -10 18
-23 33 -29 32 -5 0 -37 -19 -70 -41z"/>
<path d="M908 1265 c-2 -2 -37 -6 -78 -9 -119 -11 -183 -17 -210 -21 -14 -2
-65 -7 -113 -11 -48 -3 -85 -9 -82 -12 7 -8 12 -8 141 -16 61 -4 119 -9 130
-11 10 -2 36 -4 58 -4 l39 -1 -8 -47 c-12 -77 -14 -253 -4 -318 54 -331 280
-559 565 -571 190 -7 391 84 538 244 16 18 31 39 32 47 1 8 18 34 38 57 20 23
35 42 33 44 -2 2 -197 12 -397 20 -80 3 -152 7 -160 10 -10 3 -12 2 -5 -4 6
-6 82 -24 169 -41 88 -17 161 -33 164 -35 2 -2 -23 -25 -54 -51 -107 -86 -238
-137 -344 -134 -67 2 -167 37 -216 74 -51 39 -53 24 -2 -19 74 -64 187 -116
249 -116 15 0 31 -4 34 -10 7 -12 -39 -5 -110 17 -77 24 -152 70 -211 131 -51
53 -69 82 -41 66 7 -4 9 -3 4 2 -5 5 -14 9 -19 9 -18 0 -75 121 -98 209 -30
110 -31 268 -2 386 11 47 24 93 27 102 6 15 1 17 -29 16 -20 -1 -37 -2 -38 -3z
m959 -779 c-102 -92 -236 -151 -367 -163 -36 -3 -63 -3 -60 0 3 3 33 8 67 11
123 12 260 73 358 160 22 20 42 36 45 35 3 0 -17 -19 -43 -43z"/>
<path d="M1237 788 c-7 -4 6 -8 28 -9 22 0 47 -2 56 -4 8 -1 65 -6 126 -9 61
-4 119 -8 130 -10 10 -2 68 -7 128 -11 61 -4 124 -8 140 -10 17 -2 67 -7 112
-10 l82 -6 16 31 c9 18 14 34 11 37 -8 9 -816 9 -829 1z"/>
<path d="M1198 783 c7 -3 16 -2 19 1 4 3 -2 6 -13 5 -11 0 -14 -3 -6 -6z"/>
<path d="M1085 510 c3 -5 8 -10 11 -10 2 0 4 5 4 10 0 6 -5 10 -11 10 -5 0 -7
-4 -4 -10z"/>
</g>
</svg>
